<?xml version="1.0" standalone="no"?>
<!DOCTYPE svg PUBLIC "-//W3C//DTD SVG 20010904//EN"
 "http://www.w3.org/TR/2001/REC-SVG-20010904/DTD/svg10.dtd">
<svg version="1.0" xmlns="http://www.w3.org/2000/svg"
 width="796.000000pt" height="796.000000pt" viewBox="0 0 796.000000 796.000000"
 preserveAspectRatio="xMidYMid meet">
<metadata>
Created by potrace 1.11, written by Peter Selinger 2001-2013
</metadata>
<g transform="translate(0.000000,796.000000) scale(0.100000,-0.100000)"
fill="#000000" stroke="none">
<path d="M0 3980 l0 -2880 3980 0 3980 0 0 2880 0 2880 -3980 0 -3980 0 0
-2880z m3464 1609 l26 -31 0 -299 0 -299 274 0 c202 0 297 -4 362 -15 189 -33
419 -129 594 -248 114 -77 233 -184 223 -200 -3 -6 -1 -7 5 -3 7 4 27 -14 49
-43 l38 -50 622 0 621 -1 -15 -47 c-10 -33 -13 -75 -10 -135 l4 -87 -631 -3
c-579 -3 -635 -4 -679 -21 -54 -20 -158 -79 -181 -103 -9 -8 -22 -12 -28 -8
-7 4 -10 4 -6 -1 4 -4 -21 -38 -56 -75 -79 -85 -140 -170 -203 -285 -74 -136
-163 -266 -176 -258 -7 3 -9 3 -5 -2 10 -10 -6 -38 -60 -107 -24 -32 -49 -55
-55 -51 -5 3 -7 1 -4 -4 8 -12 -74 -95 -123 -125 -54 -32 -130 -59 -220 -76
-76 -15 -184 -17 -1020 -15 -786 1 -956 4 -1064 18 -380 47 -609 193 -672 430
-8 28 -14 91 -14 140 0 427 287 854 743 1104 42 24 82 39 88 35 8 -5 9 -3 4 6
-6 10 -4 12 9 7 9 -4 15 -3 12 2 -12 18 226 106 406 150 217 54 306 63 658 70
l325 6 2 190 c1 105 2 241 2 303 1 106 2 114 26 137 37 38 95 35 129 -6z
m-644 -179 c124 -5 267 -12 318 -16 l92 -6 0 -77 0 -78 -167 -7 c-93 -4 -244
-13 -338 -21 -387 -32 -568 -39 -1080 -39 -359 0 -572 4 -660 12 -212 21 -342
54 -333 85 16 50 302 110 673 142 184 15 1172 19 1495 5z m3050 -9 c120 -16
232 -41 254 -56 26 -19 14 -43 -31 -61 -106 -45 -431 -94 -743 -114 -302 -18
-1240 -8 -1675 18 l-110 7 0 73 c0 48 4 75 13 81 7 4 63 9 125 10 62 1 166 6
232 11 318 24 446 32 635 40 278 11 1193 5 1300 -9z m449 -536 c46 -42 137
-172 210 -301 28 -49 51 -92 51 -95 0 -3 -18 -11 -39 -18 -22 -6 -54 -25 -71
-41 -18 -17 -34 -29 -35 -28 -2 2 -35 59 -73 128 -123 218 -164 337 -127 373
24 25 40 21 84 -18z m345 -469 c71 -30 105 -128 68 -196 -26 -48 -76 -80 -124
-80 -89 0 -148 58 -148 145 0 110 100 174 204 131z m503 -57 c94 -13 137 -30
153 -59 10 -19 9 -26 -8 -42 -36 -37 -115 -50 -330 -55 l-202 -6 10 27 c13 34
13 87 0 120 l-10 26 155 0 c84 0 189 -5 232 -11z m-694 -219 c18 -17 51 -36
74 -43 l42 -12 -44 -75 c-129 -222 -237 -360 -279 -360 -8 0 -22 8 -31 17 -34
33 3 149 104 328 28 50 61 109 73 133 12 23 24 42 26 42 1 0 17 -14 35 -30z
m-5562 -1246 c21 -11 39 -34 58 -77 45 -98 110 -178 187 -229 121 -80 126 -81
567 -86 l387 -4 0 186 0 186 105 0 105 0 2 -182 3 -183 555 0 555 0 3 183 2
182 105 0 105 0 0 -185 c0 -102 3 -184 8 -184 4 1 186 1 405 0 l399 -1 28 -29
c52 -51 52 -111 0 -162 l-28 -29 -1570 0 c-1518 0 -1571 1 -1644 19 -204 52
-378 199 -474 397 -30 63 -35 83 -31 118 11 80 93 119 168 80z"/>
<path d="M2210 4544 c-343 -43 -565 -155 -669 -338 -38 -65 -71 -178 -71 -240
0 -129 153 -248 340 -264 41 -4 239 -5 440 -2 400 6 397 6 506 71 35 22 68 53
92 88 l37 53 3 186 c4 206 -4 248 -58 299 -24 22 -27 30 -17 43 10 12 10 13
-3 4 -12 -9 -24 -5 -57 16 -23 15 -41 29 -39 31 3 2 -5 5 -17 5 -12 1 -56 11
-97 23 -74 21 -303 36 -390 25z"/>
</g>
</svg>
