<?xml version="1.0" standalone="no"?>
<!DOCTYPE svg PUBLIC "-//W3C//DTD SVG 20010904//EN"
 "http://www.w3.org/TR/2001/REC-SVG-20010904/DTD/svg10.dtd">
<svg version="1.0" xmlns="http://www.w3.org/2000/svg"
 width="1280.000000pt" height="640.000000pt" viewBox="0 0 1280.000000 640.000000"
 preserveAspectRatio="xMidYMid meet">
<metadata>
Created by potrace 1.15, written by Peter Selinger 2001-2017
</metadata>
<g transform="translate(0.000000,640.000000) scale(0.100000,-0.100000)"
fill="#939bb4" stroke="none">
<path d="M122 5808 c-20 -20 -15 -58 8 -58 12 0 24 -10 30 -22 5 -13 46 -205
90 -428 45 -223 97 -457 115 -520 39 -129 51 -203 41 -253 -4 -23 -41 -79
-103 -159 -122 -156 -227 -313 -265 -395 -57 -120 -46 -245 25 -295 18 -12 76
-63 130 -113 118 -108 116 -70 22 -403 -63 -221 -66 -235 -51 -257 22 -34 45
-44 273 -119 277 -91 270 -91 378 -25 49 29 136 90 194 136 342 269 418 326
564 424 192 130 172 127 449 74 152 -28 697 -124 1228 -216 63 -11 331 -58
595 -104 485 -85 638 -112 1064 -186 163 -28 248 -47 280 -64 25 -12 195 -121
376 -241 182 -121 440 -286 574 -369 502 -311 569 -362 541 -415 -11 -20 -16
-20 -155 -14 -116 6 -148 4 -161 -7 -53 -44 -123 -214 -153 -373 -21 -112 -31
-130 -66 -122 -88 21 -103 19 -135 -12 -22 -23 -30 -40 -30 -67 0 -82 58 -135
148 -135 67 0 112 -22 112 -54 0 -27 -9 -23 180 -80 178 -53 293 -73 663 -116
188 -22 483 -58 655 -80 1216 -155 1198 -153 1407 -154 203 -1 256 9 341 66
61 42 208 205 335 375 55 72 116 144 135 160 19 15 57 47 83 71 l48 42 111 0
c168 0 536 52 709 101 158 45 265 99 341 175 78 79 103 132 103 222 -1 208
-175 498 -485 807 -407 406 -905 678 -1338 730 -40 5 -50 11 -67 40 -10 18
-43 51 -71 72 -34 25 -58 54 -73 86 -12 26 -26 47 -32 47 -5 0 -32 38 -58 85
-52 89 -77 120 -77 92 0 -9 7 -31 15 -49 8 -18 37 -86 65 -151 77 -176 62
-215 -49 -130 -34 26 -113 83 -174 126 -355 249 -494 325 -776 428 -57 21
-108 42 -114 48 -11 11 2 94 26 170 11 33 16 36 66 44 41 7 63 5 95 -7 59 -23
81 -20 108 13 21 26 30 29 105 35 45 3 84 2 87 -3 3 -4 37 -6 75 -3 42 3 108
-2 168 -12 148 -25 143 -25 368 -36 190 -9 471 -18 1575 -50 862 -26 1544 -56
1928 -86 55 -5 82 -3 82 4 0 57 -674 100 -3085 197 -1029 41 -1244 54 -1272
77 -7 6 -13 16 -13 23 0 7 -10 25 -22 40 -20 25 -25 27 -74 21 -50 -6 -54 -5
-66 21 -34 68 -230 136 -398 137 -108 0 -158 -13 -214 -58 -26 -21 -20 -24 55
-40 96 -19 87 -35 -18 -29 -114 6 -126 8 -161 38 -27 23 -30 23 -37 7 -6 -16
-7 -16 -18 -1 -10 13 -21 15 -52 10 -22 -4 -39 -12 -38 -18 5 -25 -26 -36 -70
-24 -23 6 -116 22 -207 36 -189 29 -302 49 -845 145 -214 38 -444 78 -510 90
-66 11 -167 29 -225 40 -277 52 -1739 308 -2109 369 -647 109 -1018 160 -951
131 43 -19 196 -47 865 -160 891 -149 1481 -260 2850 -536 497 -100 645 -126
700 -124 147 4 180 1 288 -26 62 -15 129 -31 149 -36 27 -6 42 -17 53 -38 17
-34 31 -38 132 -42 50 -3 78 -9 89 -20 22 -21 34 -92 27 -150 -8 -70 -18 -78
-81 -68 -91 15 -368 39 -597 51 -264 14 -857 7 -928 -11 -39 -10 -51 -9 -64 2
-15 12 -16 10 -9 -22 4 -21 20 -48 41 -67 19 -18 35 -37 35 -42 0 -6 9 -11 20
-11 11 0 20 -4 20 -10 0 -5 -13 -10 -28 -10 -16 0 -40 -9 -53 -21 -39 -34 -68
-41 -121 -29 -115 24 -226 -1 -299 -67 -42 -38 -55 -69 -44 -103 6 -20 104
-75 179 -100 31 -10 36 -16 36 -43 0 -26 -6 -35 -32 -47 -80 -37 -577 -1
-2843 205 -451 41 -863 77 -915 81 -52 4 -103 11 -112 15 -18 10 -262 492
-638 1262 -131 268 -253 510 -271 538 -17 27 -45 57 -60 65 -41 21 -205 41
-473 59 -275 18 -249 18 -264 3z m960 -1529 c80 -17 202 -84 250 -138 42 -48
138 -235 138 -270 0 -11 -11 -28 -25 -37 -21 -14 -41 -15 -130 -9 -116 8 -109
4 -178 103 -32 48 -97 82 -153 82 -63 0 -139 -43 -170 -96 -23 -38 -26 -54
-22 -108 5 -81 34 -127 102 -161 86 -43 161 -28 240 47 60 58 72 61 176 56
104 -4 124 -21 109 -88 -37 -164 -241 -310 -434 -310 -220 0 -426 178 -465
400 -52 301 257 593 562 529z m6137 -2655 c180 -53 200 -62 254 -116 68 -67
47 -69 -238 -21 -191 32 -204 38 -226 117 -22 81 -3 83 210 20z m1059 -204
c212 -25 262 -42 246 -85 -8 -19 -49 -17 -214 10 -47 8 -145 21 -218 30 -162
18 -202 35 -154 65 21 13 104 8 340 -20z m-459 -130 c1323 -156 1531 -184
1531 -206 0 -14 -78 -76 -187 -148 l-71 -48 -59 21 c-97 34 -810 132 -1617
221 -204 22 -376 46 -384 52 -11 9 -12 30 -7 97 7 85 11 101 22 101 3 0 350
-41 772 -90z m1081 59 c36 -5 89 -17 118 -26 55 -18 122 -66 109 -79 -6 -7
-380 38 -445 53 -31 7 -26 45 8 54 38 11 138 10 210 -2z m741 -281 c48 -7 69
-15 67 -24 -2 -7 -50 -57 -108 -110 l-104 -97 -76 6 c-85 6 -110 13 -110 32 0
17 109 155 145 183 32 25 80 28 186 10z"/>
</g>
</svg>
